<?xml version="1.0" encoding="UTF-8"?>
<svg xmlns="http://www.w3.org/2000/svg" xmlns:xlink="http://www.w3.org/1999/xlink" width="500pt" height="500pt" viewBox="0 0 500 500" version="1.1">
<defs>
<clipPath id="clip1">
  <path d="M 500 250 L 499.769531 366.5 L 499.074219 393.296875 L 497.90625 411.582031 L 496.265625 425.765625 L 494.132812 437.410156 L 491.492188 447.265625 L 488.324219 455.761719 L 484.601562 463.160156 L 480.277344 469.636719 L 475.3125 475.3125 L 469.636719 480.277344 L 463.160156 484.601562 L 455.761719 488.324219 L 447.265625 491.492188 L 437.410156 494.132812 L 425.765625 496.265625 L 411.582031 497.90625 L 393.296875 499.074219 L 366.5 499.769531 L 250.003906 500 L 133.5 499.769531 L 106.703125 499.074219 L 88.417969 497.90625 L 74.234375 496.265625 L 62.589844 494.132812 L 52.734375 491.492188 L 44.238281 488.324219 L 36.839844 484.601562 L 30.363281 480.277344 L 24.6875 475.3125 L 19.722656 469.636719 L 15.398438 463.160156 L 11.675781 455.761719 L 8.507812 447.265625 L 5.867188 437.410156 L 3.734375 425.765625 L 2.09375 411.582031 L 0.925781 393.296875 L 0.230469 366.5 L 0 250.003906 L 0.230469 133.5 L 0.925781 106.703125 L 2.09375 88.417969 L 3.734375 74.234375 L 5.867188 62.589844 L 8.507812 52.734375 L 11.675781 44.238281 L 15.398438 36.839844 L 19.722656 30.363281 L 24.6875 24.6875 L 30.363281 19.722656 L 36.839844 15.398438 L 44.238281 11.675781 L 52.734375 8.507812 L 62.589844 5.867188 L 74.234375 3.734375 L 88.417969 2.09375 L 106.703125 0.925781 L 133.5 0.230469 L 249.996094 0 L 366.5 0.230469 L 393.296875 0.925781 L 411.582031 2.09375 L 425.765625 3.734375 L 437.410156 5.867188 L 447.265625 8.507812 L 455.761719 11.675781 L 463.160156 15.398438 L 469.636719 19.722656 L 475.3125 24.6875 L 480.277344 30.363281 L 484.601562 36.839844 L 488.324219 44.238281 L 491.492188 52.734375 L 494.132812 62.589844 L 496.265625 74.234375 L 497.90625 88.417969 L 499.074219 106.703125 L 499.769531 133.5 L 500 249.996094 Z M 500 250 "/>
</clipPath>
<clipPath id="clip2">
  <path d="M 115 260 L 385 260 L 385 344 L 115 344 Z M 115 260 "/>
</clipPath>
<clipPath id="clip3">
  <path d="M 500 250 L 499.769531 366.5 L 499.074219 393.296875 L 497.90625 411.582031 L 496.265625 425.765625 L 494.132812 437.410156 L 491.492188 447.265625 L 488.324219 455.761719 L 484.601562 463.160156 L 480.277344 469.636719 L 475.3125 475.3125 L 469.636719 480.277344 L 463.160156 484.601562 L 455.761719 488.324219 L 447.265625 491.492188 L 437.410156 494.132812 L 425.765625 496.265625 L 411.582031 497.90625 L 393.296875 499.074219 L 366.5 499.769531 L 250.003906 500 L 133.5 499.769531 L 106.703125 499.074219 L 88.417969 497.90625 L 74.234375 496.265625 L 62.589844 494.132812 L 52.734375 491.492188 L 44.238281 488.324219 L 36.839844 484.601562 L 30.363281 480.277344 L 24.6875 475.3125 L 19.722656 469.636719 L 15.398438 463.160156 L 11.675781 455.761719 L 8.507812 447.265625 L 5.867188 437.410156 L 3.734375 425.765625 L 2.09375 411.582031 L 0.925781 393.296875 L 0.230469 366.5 L 0 250.003906 L 0.230469 133.5 L 0.925781 106.703125 L 2.09375 88.417969 L 3.734375 74.234375 L 5.867188 62.589844 L 8.507812 52.734375 L 11.675781 44.238281 L 15.398438 36.839844 L 19.722656 30.363281 L 24.6875 24.6875 L 30.363281 19.722656 L 36.839844 15.398438 L 44.238281 11.675781 L 52.734375 8.507812 L 62.589844 5.867188 L 74.234375 3.734375 L 88.417969 2.09375 L 106.703125 0.925781 L 133.5 0.230469 L 249.996094 0 L 366.5 0.230469 L 393.296875 0.925781 L 411.582031 2.09375 L 425.765625 3.734375 L 437.410156 5.867188 L 447.265625 8.507812 L 455.761719 11.675781 L 463.160156 15.398438 L 469.636719 19.722656 L 475.3125 24.6875 L 480.277344 30.363281 L 484.601562 36.839844 L 488.324219 44.238281 L 491.492188 52.734375 L 494.132812 62.589844 L 496.265625 74.234375 L 497.90625 88.417969 L 499.074219 106.703125 L 499.769531 133.5 L 500 249.996094 Z M 500 250 "/>
</clipPath>
<linearGradient id="linear0" gradientUnits="userSpaceOnUse" x1="-240" y1="0" x2="240" y2="0" gradientTransform="matrix(1,0,0,1,250,450)">
<stop offset="0" style="stop-color:rgb(100%,100%,100%);stop-opacity:1;"/>
<stop offset="1" style="stop-color:rgb(25.1%,38.8%,84.7%);stop-opacity:1;"/>
</linearGradient>
<clipPath id="clip4">
  <path d="M 76 205 L 424 205 L 424 306 L 76 306 Z M 76 205 "/>
</clipPath>
<clipPath id="clip5">
  <path d="M 500 250 L 499.769531 366.5 L 499.074219 393.296875 L 497.90625 411.582031 L 496.265625 425.765625 L 494.132812 437.410156 L 491.492188 447.265625 L 488.324219 455.761719 L 484.601562 463.160156 L 480.277344 469.636719 L 475.3125 475.3125 L 469.636719 480.277344 L 463.160156 484.601562 L 455.761719 488.324219 L 447.265625 491.492188 L 437.410156 494.132812 L 425.765625 496.265625 L 411.582031 497.90625 L 393.296875 499.074219 L 366.5 499.769531 L 250.003906 500 L 133.5 499.769531 L 106.703125 499.074219 L 88.417969 497.90625 L 74.234375 496.265625 L 62.589844 494.132812 L 52.734375 491.492188 L 44.238281 488.324219 L 36.839844 484.601562 L 30.363281 480.277344 L 24.6875 475.3125 L 19.722656 469.636719 L 15.398438 463.160156 L 11.675781 455.761719 L 8.507812 447.265625 L 5.867188 437.410156 L 3.734375 425.765625 L 2.09375 411.582031 L 0.925781 393.296875 L 0.230469 366.5 L 0 250.003906 L 0.230469 133.5 L 0.925781 106.703125 L 2.09375 88.417969 L 3.734375 74.234375 L 5.867188 62.589844 L 8.507812 52.734375 L 11.675781 44.238281 L 15.398438 36.839844 L 19.722656 30.363281 L 24.6875 24.6875 L 30.363281 19.722656 L 36.839844 15.398438 L 44.238281 11.675781 L 52.734375 8.507812 L 62.589844 5.867188 L 74.234375 3.734375 L 88.417969 2.09375 L 106.703125 0.925781 L 133.5 0.230469 L 249.996094 0 L 366.5 0.230469 L 393.296875 0.925781 L 411.582031 2.09375 L 425.765625 3.734375 L 437.410156 5.867188 L 447.265625 8.507812 L 455.761719 11.675781 L 463.160156 15.398438 L 469.636719 19.722656 L 475.3125 24.6875 L 480.277344 30.363281 L 484.601562 36.839844 L 488.324219 44.238281 L 491.492188 52.734375 L 494.132812 62.589844 L 496.265625 74.234375 L 497.90625 88.417969 L 499.074219 106.703125 L 499.769531 133.5 L 500 249.996094 Z M 500 250 "/>
</clipPath>
<linearGradient id="linear1" gradientUnits="userSpaceOnUse" x1="-240" y1="0" x2="240" y2="0" gradientTransform="matrix(1,0,0,1,250,450)">
<stop offset="0" style="stop-color:rgb(100%,100%,100%);stop-opacity:1;"/>
<stop offset="1" style="stop-color:rgb(22%,59.6%,14.9%);stop-opacity:1;"/>
</linearGradient>
<clipPath id="clip6">
  <path d="M 37 150 L 463 150 L 463 267 L 37 267 Z M 37 150 "/>
</clipPath>
<clipPath id="clip7">
  <path d="M 500 250 L 499.769531 366.5 L 499.074219 393.296875 L 497.90625 411.582031 L 496.265625 425.765625 L 494.132812 437.410156 L 491.492188 447.265625 L 488.324219 455.761719 L 484.601562 463.160156 L 480.277344 469.636719 L 475.3125 475.3125 L 469.636719 480.277344 L 463.160156 484.601562 L 455.761719 488.324219 L 447.265625 491.492188 L 437.410156 494.132812 L 425.765625 496.265625 L 411.582031 497.90625 L 393.296875 499.074219 L 366.5 499.769531 L 250.003906 500 L 133.5 499.769531 L 106.703125 499.074219 L 88.417969 497.90625 L 74.234375 496.265625 L 62.589844 494.132812 L 52.734375 491.492188 L 44.238281 488.324219 L 36.839844 484.601562 L 30.363281 480.277344 L 24.6875 475.3125 L 19.722656 469.636719 L 15.398438 463.160156 L 11.675781 455.761719 L 8.507812 447.265625 L 5.867188 437.410156 L 3.734375 425.765625 L 2.09375 411.582031 L 0.925781 393.296875 L 0.230469 366.5 L 0 250.003906 L 0.230469 133.5 L 0.925781 106.703125 L 2.09375 88.417969 L 3.734375 74.234375 L 5.867188 62.589844 L 8.507812 52.734375 L 11.675781 44.238281 L 15.398438 36.839844 L 19.722656 30.363281 L 24.6875 24.6875 L 30.363281 19.722656 L 36.839844 15.398438 L 44.238281 11.675781 L 52.734375 8.507812 L 62.589844 5.867188 L 74.234375 3.734375 L 88.417969 2.09375 L 106.703125 0.925781 L 133.5 0.230469 L 249.996094 0 L 366.5 0.230469 L 393.296875 0.925781 L 411.582031 2.09375 L 425.765625 3.734375 L 437.410156 5.867188 L 447.265625 8.507812 L 455.761719 11.675781 L 463.160156 15.398438 L 469.636719 19.722656 L 475.3125 24.6875 L 480.277344 30.363281 L 484.601562 36.839844 L 488.324219 44.238281 L 491.492188 52.734375 L 494.132812 62.589844 L 496.265625 74.234375 L 497.90625 88.417969 L 499.074219 106.703125 L 499.769531 133.5 L 500 249.996094 Z M 500 250 "/>
</clipPath>
<linearGradient id="linear2" gradientUnits="userSpaceOnUse" x1="-240" y1="0" x2="240" y2="0" gradientTransform="matrix(1,0,0,1,250,450)">
<stop offset="0" style="stop-color:rgb(100%,100%,100%);stop-opacity:1;"/>
<stop offset="1" style="stop-color:rgb(79.6%,23.5%,20%);stop-opacity:1;"/>
</linearGradient>
<clipPath id="clip8">
  <path d="M 0 95 L 500 95 L 500 228 L 0 228 Z M 0 95 "/>
</clipPath>
<clipPath id="clip9">
  <path d="M 500 250 L 499.769531 366.5 L 499.074219 393.296875 L 497.90625 411.582031 L 496.265625 425.765625 L 494.132812 437.410156 L 491.492188 447.265625 L 488.324219 455.761719 L 484.601562 463.160156 L 480.277344 469.636719 L 475.3125 475.3125 L 469.636719 480.277344 L 463.160156 484.601562 L 455.761719 488.324219 L 447.265625 491.492188 L 437.410156 494.132812 L 425.765625 496.265625 L 411.582031 497.90625 L 393.296875 499.074219 L 366.5 499.769531 L 250.003906 500 L 133.5 499.769531 L 106.703125 499.074219 L 88.417969 497.90625 L 74.234375 496.265625 L 62.589844 494.132812 L 52.734375 491.492188 L 44.238281 488.324219 L 36.839844 484.601562 L 30.363281 480.277344 L 24.6875 475.3125 L 19.722656 469.636719 L 15.398438 463.160156 L 11.675781 455.761719 L 8.507812 447.265625 L 5.867188 437.410156 L 3.734375 425.765625 L 2.09375 411.582031 L 0.925781 393.296875 L 0.230469 366.5 L 0 250.003906 L 0.230469 133.5 L 0.925781 106.703125 L 2.09375 88.417969 L 3.734375 74.234375 L 5.867188 62.589844 L 8.507812 52.734375 L 11.675781 44.238281 L 15.398438 36.839844 L 19.722656 30.363281 L 24.6875 24.6875 L 30.363281 19.722656 L 36.839844 15.398438 L 44.238281 11.675781 L 52.734375 8.507812 L 62.589844 5.867188 L 74.234375 3.734375 L 88.417969 2.09375 L 106.703125 0.925781 L 133.5 0.230469 L 249.996094 0 L 366.5 0.230469 L 393.296875 0.925781 L 411.582031 2.09375 L 425.765625 3.734375 L 437.410156 5.867188 L 447.265625 8.507812 L 455.761719 11.675781 L 463.160156 15.398438 L 469.636719 19.722656 L 475.3125 24.6875 L 480.277344 30.363281 L 484.601562 36.839844 L 488.324219 44.238281 L 491.492188 52.734375 L 494.132812 62.589844 L 496.265625 74.234375 L 497.90625 88.417969 L 499.074219 106.703125 L 499.769531 133.5 L 500 249.996094 Z M 500 250 "/>
</clipPath>
<linearGradient id="linear3" gradientUnits="userSpaceOnUse" x1="-240" y1="0" x2="240" y2="0" gradientTransform="matrix(1,0,0,1,250,450)">
<stop offset="0" style="stop-color:rgb(100%,100%,100%);stop-opacity:1;"/>
<stop offset="1" style="stop-color:rgb(58.4%,34.5%,69.8%);stop-opacity:1;"/>
</linearGradient>
<clipPath id="clip10">
  <path d="M 500 250 L 499.769531 366.5 L 499.074219 393.296875 L 497.90625 411.582031 L 496.265625 425.765625 L 494.132812 437.410156 L 491.492188 447.265625 L 488.324219 455.761719 L 484.601562 463.160156 L 480.277344 469.636719 L 475.3125 475.3125 L 469.636719 480.277344 L 463.160156 484.601562 L 455.761719 488.324219 L 447.265625 491.492188 L 437.410156 494.132812 L 425.765625 496.265625 L 411.582031 497.90625 L 393.296875 499.074219 L 366.5 499.769531 L 250.003906 500 L 133.5 499.769531 L 106.703125 499.074219 L 88.417969 497.90625 L 74.234375 496.265625 L 62.589844 494.132812 L 52.734375 491.492188 L 44.238281 488.324219 L 36.839844 484.601562 L 30.363281 480.277344 L 24.6875 475.3125 L 19.722656 469.636719 L 15.398438 463.160156 L 11.675781 455.761719 L 8.507812 447.265625 L 5.867188 437.410156 L 3.734375 425.765625 L 2.09375 411.582031 L 0.925781 393.296875 L 0.230469 366.5 L 0 250.003906 L 0.230469 133.5 L 0.925781 106.703125 L 2.09375 88.417969 L 3.734375 74.234375 L 5.867188 62.589844 L 8.507812 52.734375 L 11.675781 44.238281 L 15.398438 36.839844 L 19.722656 30.363281 L 24.6875 24.6875 L 30.363281 19.722656 L 36.839844 15.398438 L 44.238281 11.675781 L 52.734375 8.507812 L 62.589844 5.867188 L 74.234375 3.734375 L 88.417969 2.09375 L 106.703125 0.925781 L 133.5 0.230469 L 249.996094 0 L 366.5 0.230469 L 393.296875 0.925781 L 411.582031 2.09375 L 425.765625 3.734375 L 437.410156 5.867188 L 447.265625 8.507812 L 455.761719 11.675781 L 463.160156 15.398438 L 469.636719 19.722656 L 475.3125 24.6875 L 480.277344 30.363281 L 484.601562 36.839844 L 488.324219 44.238281 L 491.492188 52.734375 L 494.132812 62.589844 L 496.265625 74.234375 L 497.90625 88.417969 L 499.074219 106.703125 L 499.769531 133.5 L 500 249.996094 Z M 500 250 "/>
</clipPath>
<clipPath id="clip11">
  <path d="M 52 0 L 500 0 L 500 500 L 52 500 Z M 52 0 "/>
</clipPath>
<clipPath id="clip12">
  <path d="M 500 250 L 499.769531 366.5 L 499.074219 393.296875 L 497.90625 411.582031 L 496.265625 425.765625 L 494.132812 437.410156 L 491.492188 447.265625 L 488.324219 455.761719 L 484.601562 463.160156 L 480.277344 469.636719 L 475.3125 475.3125 L 469.636719 480.277344 L 463.160156 484.601562 L 455.761719 488.324219 L 447.265625 491.492188 L 437.410156 494.132812 L 425.765625 496.265625 L 411.582031 497.90625 L 393.296875 499.074219 L 366.5 499.769531 L 250.003906 500 L 133.5 499.769531 L 106.703125 499.074219 L 88.417969 497.90625 L 74.234375 496.265625 L 62.589844 494.132812 L 52.734375 491.492188 L 44.238281 488.324219 L 36.839844 484.601562 L 30.363281 480.277344 L 24.6875 475.3125 L 19.722656 469.636719 L 15.398438 463.160156 L 11.675781 455.761719 L 8.507812 447.265625 L 5.867188 437.410156 L 3.734375 425.765625 L 2.09375 411.582031 L 0.925781 393.296875 L 0.230469 366.5 L 0 250.003906 L 0.230469 133.5 L 0.925781 106.703125 L 2.09375 88.417969 L 3.734375 74.234375 L 5.867188 62.589844 L 8.507812 52.734375 L 11.675781 44.238281 L 15.398438 36.839844 L 19.722656 30.363281 L 24.6875 24.6875 L 30.363281 19.722656 L 36.839844 15.398438 L 44.238281 11.675781 L 52.734375 8.507812 L 62.589844 5.867188 L 74.234375 3.734375 L 88.417969 2.09375 L 106.703125 0.925781 L 133.5 0.230469 L 249.996094 0 L 366.5 0.230469 L 393.296875 0.925781 L 411.582031 2.09375 L 425.765625 3.734375 L 437.410156 5.867188 L 447.265625 8.507812 L 455.761719 11.675781 L 463.160156 15.398438 L 469.636719 19.722656 L 475.3125 24.6875 L 480.277344 30.363281 L 484.601562 36.839844 L 488.324219 44.238281 L 491.492188 52.734375 L 494.132812 62.589844 L 496.265625 74.234375 L 497.90625 88.417969 L 499.074219 106.703125 L 499.769531 133.5 L 500 249.996094 Z M 500 250 "/>
</clipPath>
<clipPath id="clip13">
  <path d="M 220 420 L 280 420 L 280 480 L 220 480 Z M 220 420 "/>
</clipPath>
<clipPath id="clip14">
  <path d="M 500 250 L 499.769531 366.5 L 499.074219 393.296875 L 497.90625 411.582031 L 496.265625 425.765625 L 494.132812 437.410156 L 491.492188 447.265625 L 488.324219 455.761719 L 484.601562 463.160156 L 480.277344 469.636719 L 475.3125 475.3125 L 469.636719 480.277344 L 463.160156 484.601562 L 455.761719 488.324219 L 447.265625 491.492188 L 437.410156 494.132812 L 425.765625 496.265625 L 411.582031 497.90625 L 393.296875 499.074219 L 366.5 499.769531 L 250.003906 500 L 133.5 499.769531 L 106.703125 499.074219 L 88.417969 497.90625 L 74.234375 496.265625 L 62.589844 494.132812 L 52.734375 491.492188 L 44.238281 488.324219 L 36.839844 484.601562 L 30.363281 480.277344 L 24.6875 475.3125 L 19.722656 469.636719 L 15.398438 463.160156 L 11.675781 455.761719 L 8.507812 447.265625 L 5.867188 437.410156 L 3.734375 425.765625 L 2.09375 411.582031 L 0.925781 393.296875 L 0.230469 366.5 L 0 250.003906 L 0.230469 133.5 L 0.925781 106.703125 L 2.09375 88.417969 L 3.734375 74.234375 L 5.867188 62.589844 L 8.507812 52.734375 L 11.675781 44.238281 L 15.398438 36.839844 L 19.722656 30.363281 L 24.6875 24.6875 L 30.363281 19.722656 L 36.839844 15.398438 L 44.238281 11.675781 L 52.734375 8.507812 L 62.589844 5.867188 L 74.234375 3.734375 L 88.417969 2.09375 L 106.703125 0.925781 L 133.5 0.230469 L 249.996094 0 L 366.5 0.230469 L 393.296875 0.925781 L 411.582031 2.09375 L 425.765625 3.734375 L 437.410156 5.867188 L 447.265625 8.507812 L 455.761719 11.675781 L 463.160156 15.398438 L 469.636719 19.722656 L 475.3125 24.6875 L 480.277344 30.363281 L 484.601562 36.839844 L 488.324219 44.238281 L 491.492188 52.734375 L 494.132812 62.589844 L 496.265625 74.234375 L 497.90625 88.417969 L 499.074219 106.703125 L 499.769531 133.5 L 500 249.996094 Z M 500 250 "/>
</clipPath>
</defs>
<g id="surface36">
<g clip-path="url(#clip1)" clip-rule="nonzero">
<rect x="0" y="0" width="500" height="500" style="fill:rgb(0%,0%,0%);fill-opacity:1;stroke:none;"/>
</g>
<g clip-path="url(#clip2)" clip-rule="nonzero">
<g clip-path="url(#clip3)" clip-rule="nonzero">
<path style=" stroke:none;fill-rule:nonzero;fill:url(#linear0);" d="M 143.933594 343.933594 L 115.648438 315.648438 C 189.847656 241.449219 310.152344 241.449219 384.351562 315.648438 L 356.066406 343.933594 C 297.488281 285.355469 202.511719 285.355469 143.933594 343.933594 Z M 143.933594 343.933594 "/>
</g>
</g>
<g clip-path="url(#clip4)" clip-rule="nonzero">
<g clip-path="url(#clip5)" clip-rule="nonzero">
<path style=" stroke:none;fill-rule:nonzero;fill:url(#linear1);" d="M 105.042969 305.042969 L 76.757812 276.757812 C 172.4375 181.082031 327.5625 181.082031 423.242188 276.757812 L 394.957031 305.042969 C 314.898438 224.984375 185.101562 224.984375 105.042969 305.042969 Z M 105.042969 305.042969 "/>
</g>
</g>
<g clip-path="url(#clip6)" clip-rule="nonzero">
<g clip-path="url(#clip7)" clip-rule="nonzero">
<path style=" stroke:none;fill-rule:nonzero;fill:url(#linear2);" d="M 66.152344 266.152344 L 37.867188 237.867188 C 155.023438 120.710938 344.976562 120.710938 462.132812 237.867188 L 433.847656 266.152344 C 332.3125 164.617188 167.6875 164.617188 66.152344 266.152344 Z M 66.152344 266.152344 "/>
</g>
</g>
<g clip-path="url(#clip8)" clip-rule="nonzero">
<g clip-path="url(#clip9)" clip-rule="nonzero">
<path style=" stroke:none;fill-rule:nonzero;fill:url(#linear3);" d="M 27.261719 227.261719 L -1.023438 198.976562 C 137.613281 60.339844 362.386719 60.339844 501.023438 198.976562 L 472.738281 227.261719 C 349.722656 104.246094 150.277344 104.246094 27.261719 227.261719 Z M 27.261719 227.261719 "/>
</g>
</g>
<g clip-path="url(#clip10)" clip-rule="nonzero">
<path style="fill:none;stroke-width:25;stroke-linecap:butt;stroke-linejoin:miter;stroke:rgb(0%,0%,0%);stroke-opacity:1;stroke-miterlimit:10;" d="M 250 450 L 386.808594 74.121094 "/>
</g>
<g clip-path="url(#clip11)" clip-rule="nonzero">
<g clip-path="url(#clip12)" clip-rule="nonzero">
<path style="fill:none;stroke-width:14;stroke-linecap:butt;stroke-linejoin:miter;stroke:rgb(100%,100%,100%);stroke-opacity:1;stroke-miterlimit:10;" d="M 250 450 L 386.808594 74.121094 "/>
</g>
</g>
<g clip-path="url(#clip13)" clip-rule="nonzero">
<g clip-path="url(#clip14)" clip-rule="nonzero">
<path style=" stroke:none;fill-rule:nonzero;fill:rgb(100%,100%,100%);fill-opacity:1;" d="M 280 450 C 280 466.570312 266.570312 480 250 480 C 233.429688 480 220 466.570312 220 450 C 220 433.429688 233.429688 420 250 420 C 266.570312 420 280 433.429688 280 450 "/>
</g>
</g>
</g>
</svg>
